<?xml version="1.0" encoding="utf-8"?>
<?xml-stylesheet type="text/xsl" href="rss1.xsl"?>
<rss version="2.0" xmlns:atom="http://www.w3.org/2005/Atom" xmlns:content="http://purl.org/rss/1.0/modules/content/" xmlns:dc="http://purl.org/dc/elements/1.1/" xmlns:media="http://search.yahoo.com/mrss/">
<channel>
 <title>Getty</title>
 <link>http://www.gettyimg.com/</link>
 <atom:link href="http://www.gettyimg.com/" rel="self" type="application/rss+xml" />

 
                <item>
                <title><![CDATA[【Apple Music】WEB-RiP - Komodo feat. Michael Shynes - Is This Love (1080p)]]></title>
                <link><![CDATA[https://sharemania.us/threads/komodo-feat-michael-shynes-is-this-love-1080p.251299/]]></link>
                <description><![CDATA[<article>
<blockquote class="messageText SelectQuoteContainer ugc baseHtml">
<img src="https://i.postimg.cc/8cGphZcp/Komodo-feat-Michael-Shynes-Is-This-Love-mp4.jpg" class="bbCodeImage LbImage" alt="[​IMG]" data-url="https://i.postimg.cc/8cGphZcp/Komodo-feat-Michael-Shynes-Is-This-Love-mp4.jpg" style=""><br>
<br>
<div class="bbCodeBlock bbCodeCode">
<div class="type">Code:</div>
<pre>General
Complete name                  : G:\Новая папка\Komodo feat. Michael Shynes - Is This Love.mp4
Format                         : MPEG-4
Format profile                 : Base Media
Codec ID                       : isom (isom/iso2/avc1/mp41)
File size                      : 244 MiB
Duration                       : 3 min 21 s
Overall bit rate               : 10.2 Mb/s
Frame rate                     : 25.000 FPS
Movie name                     : Is This Love
Performer                      : Komodo
Genre                          : Dance
ContentType                    : Music Video
Recorded date                  : 2019-03-28 07:00:00 UTC
Writing application            : Lavf56.30.100
Copyright                      : ℗ (C) 2019 Sony Music Entertainment Poland Sp. z o.o.

Video
ID                             : 1
Format                         : AVC
Format/Info                    : Advanced Video Codec
Format profile                 : High@L4
Format settings                : CABAC / 4 Ref Frames
Format settings, CABAC         : Yes
Format settings, Reference fra : 4 frames
Format settings, Slice count   : 8 slices per frame
Codec ID                       : avc1
Codec ID/Info                  : Advanced Video Coding
Duration                       : 3 min 21 s
Bit rate                       : 9 918 kb/s
Width                          : 1 920 pixels
Height                         : 1 080 pixels
Display aspect ratio           : 16:9
Frame rate mode                : Constant
Frame rate                     : 25.000 FPS
Color space                    : YUV
Chroma subsampling             : 4:2:0
Bit depth                      : 8 bits
Scan type                      : Progressive
Bits/(Pixel*Frame)             : 0.191
Stream size                    : 238 MiB (97%)
Color range                    : Limited
Color primaries                : BT.709
Transfer characteristics       : BT.709
Matrix coefficients            : BT.709
Codec configuration box        : avcC

Audio
ID                             : 2
Format                         : AAC LC
Format/Info                    : Advanced Audio Codec Low Complexity
Codec ID                       : mp4a-40-2
Duration                       : 3 min 21 s
Duration_LastFrame             : -15 ms
Bit rate mode                  : Constant
Bit rate                       : 249 kb/s
Channel(s)                     : 2 channels
Channel layout                 : L R
Sampling rate                  : 48.0 kHz
Frame rate                     : 46.875 FPS (1024 SPF)
Compression mode               : Lossy
Stream size                    : 5.99 MiB (2%)
Default                        : Yes
Alternate group                : 1

</pre>
</div>
<div class="bbCodeBlock bbCodeVfcHH HiddenContent">
<div class="attribution type">Hidden Content:</div>
<blockquote>You must either reply or click 'Like' to see the hidden information contained here.</blockquote>
</div>
<div class="messageTextEndMarker">&nbsp;</div>
</blockquote>
</article>]]></description>
                <author><![CDATA[vitalya3]]></author>
                </item>

                
                <item>
                <title><![CDATA[【Apple Music】WEB-RiP - Julia Michaels - Lie Like This (1080p)]]></title>
                <link><![CDATA[https://sharemania.us/threads/julia-michaels-lie-like-this-1080p.251297/]]></link>
                <description><![CDATA[<article>
<blockquote class="messageText SelectQuoteContainer ugc baseHtml">
<img src="https://i.postimg.cc/3wmKyjRK/Julia-Michaels-Lie-Like-This-mp4.jpg" class="bbCodeImage LbImage" alt="[​IMG]" data-url="https://i.postimg.cc/3wmKyjRK/Julia-Michaels-Lie-Like-This-mp4.jpg" style=""><br>
<br>
<div class="bbCodeBlock bbCodeCode">
<div class="type">Code:</div>
<pre>General
Complete name                  : G:\Новая папка\Julia Michaels - Lie Like This.mp4
Format                         : MPEG-4
Format profile                 : Base Media
Codec ID                       : isom (isom/iso2/avc1/mp41)
File size                      : 289 MiB
Duration                       : 3 min 43 s
Overall bit rate               : 10.9 Mb/s
Frame rate                     : 23.976 FPS
Movie name                     : Lie Like This
Performer                      : Julia Michaels
Genre                          : Pop
ContentType                    : Music Video
Recorded date                  : 2020-10-21 07:00:00 UTC
Writing application            : Lavf56.30.100
Copyright                      : ℗ 2020 Republic Records, a division of UMG Recordings, Inc.

Video
ID                             : 1
Format                         : AVC
Format/Info                    : Advanced Video Codec
Format profile                 : High@L4
Format settings                : CABAC / 4 Ref Frames
Format settings, CABAC         : Yes
Format settings, Reference fra : 4 frames
Format settings, Slice count   : 8 slices per frame
Codec ID                       : avc1
Codec ID/Info                  : Advanced Video Coding
Duration                       : 3 min 43 s
Bit rate                       : 10.6 Mb/s
Width                          : 1 912 pixels
Height                         : 1 072 pixels
Display aspect ratio           : 16:9
Frame rate mode                : Constant
Frame rate                     : 23.976 (24000/1001) FPS
Color space                    : YUV
Chroma subsampling             : 4:2:0
Bit depth                      : 8 bits
Scan type                      : Progressive
Bits/(Pixel*Frame)             : 0.216
Stream size                    : 283 MiB (98%)
Language                       : English
Color range                    : Limited
Color primaries                : BT.709
Transfer characteristics       : BT.709
Matrix coefficients            : BT.709
Codec configuration box        : avcC

Audio
ID                             : 2
Format                         : AAC LC
Format/Info                    : Advanced Audio Codec Low Complexity
Codec ID                       : mp4a-40-2
Duration                       : 3 min 43 s
Duration_LastFrame             : -9 ms
Bit rate mode                  : Constant
Bit rate                       : 252 kb/s
Channel(s)                     : 2 channels
Channel layout                 : L R
Sampling rate                  : 48.0 kHz
Frame rate                     : 46.875 FPS (1024 SPF)
Compression mode               : Lossy
Stream size                    : 6.70 MiB (2%)
Default                        : Yes
Alternate group                : 1

</pre>
</div>
<div class="bbCodeBlock bbCodeVfcHH HiddenContent">
<div class="attribution type">Hidden Content:</div>
<blockquote>You must either reply or click 'Like' to see the hidden information contained here.</blockquote>
</div>
<div class="messageTextEndMarker">&nbsp;</div>
</blockquote>
</article>]]></description>
                <author><![CDATA[vitalya3]]></author>
                </item>

                
                <item>
                <title><![CDATA[【Apple Music】WEB-RiP - KAROL G &amp; Anuel AA  - Dices Que Te Vas (1080p)]]></title>
                <link><![CDATA[https://sharemania.us/threads/karol-g-anuel-aa-dices-que-te-vas-1080p.251298/]]></link>
                <description><![CDATA[<article>
<blockquote class="messageText SelectQuoteContainer ugc baseHtml">
<img src="https://i.postimg.cc/4dThnb6G/KAROL-G-Anuel-AA-Dices-Que-Te-Vas-mp4.jpg" class="bbCodeImage LbImage" alt="[​IMG]" data-url="https://i.postimg.cc/4dThnb6G/KAROL-G-Anuel-AA-Dices-Que-Te-Vas-mp4.jpg" style=""><br>
<br>
<div class="bbCodeBlock bbCodeCode">
<div class="type">Code:</div>
<pre>General
Complete name                  : G:\Новая папка\KAROL G &amp; Anuel AA  - Dices Que Te Vas.mp4
Format                         : MPEG-4
Format profile                 : Base Media
Codec ID                       : isom (isom/iso2/avc1/mp41)
File size                      : 173 MiB
Duration                       : 3 min 34 s
Overall bit rate               : 6 751 kb/s
Frame rate                     : 23.976 FPS
Movie name                     : Dices Que Te Vas
Performer                      : KAROL G &amp; Anuel AA
Genre                          : Latin
ContentType                    : Music Video
Recorded date                  : 2019-05-30 07:00:00 UTC
Writing application            : Lavf56.30.100
Copyright                      : Universal Music Latino; ℗ 2019 UMG Recordings, Inc.

Video
ID                             : 1
Format                         : AVC
Format/Info                    : Advanced Video Codec
Format profile                 : High@L4.1
Format settings                : CABAC / 5 Ref Frames
Format settings, CABAC         : Yes
Format settings, Reference fra : 5 frames
Format settings, Slice count   : 8 slices per frame
Codec ID                       : avc1
Codec ID/Info                  : Advanced Video Coding
Duration                       : 3 min 34 s
Bit rate                       : 6 507 kb/s
Width                          : 1 912 pixels
Height                         : 704 pixels
Display aspect ratio           : 2.716
Frame rate mode                : Variable
Frame rate                     : 23.976 FPS
Minimum frame rate             : 23.976 FPS
Maximum frame rate             : 24.793 FPS
Color space                    : YUV
Chroma subsampling             : 4:2:0
Bit depth                      : 8 bits
Scan type                      : Progressive
Bits/(Pixel*Frame)             : 0.202
Stream size                    : 167 MiB (96%)
Language                       : English
Color range                    : Limited
Color primaries                : BT.709
Transfer characteristics       : BT.709
Matrix coefficients            : BT.709
Codec configuration box        : avcC

Audio
ID                             : 2
Format                         : AAC LC
Format/Info                    : Advanced Audio Codec Low Complexity
Codec ID                       : mp4a-40-2
Duration                       : 3 min 34 s
Duration_LastFrame             : -10 ms
Bit rate mode                  : Constant
Bit rate                       : 240 kb/s
Channel(s)                     : 2 channels
Channel layout                 : L R
Sampling rate                  : 48.0 kHz
Frame rate                     : 46.875 FPS (1024 SPF)
Compression mode               : Lossy
Stream size                    : 6.15 MiB (4%)
Default                        : Yes
Alternate group                : 1

</pre>
</div>
<div class="bbCodeBlock bbCodeVfcHH HiddenContent">
<div class="attribution type">Hidden Content:</div>
<blockquote>You must either reply or click 'Like' to see the hidden information contained here.</blockquote>
</div>
<div class="messageTextEndMarker">&nbsp;</div>
</blockquote>
</article>]]></description>
                <author><![CDATA[vitalya3]]></author>
                </item>

                </channel></rss>